<svg xmlns="http://www.w3.org/2000/svg" width="35.007" height="34.106" viewBox="0 0 35.007 34.106">
  <g id="Grupo_373" data-name="Grupo 373" transform="translate(0 0)">
    <path id="Caminho_205" data-name="Caminho 205" d="M51.059,48.854c.568.342,1.128.633,1.638.992a7.748,7.748,0,0,1,3.2,5.184,9.643,9.643,0,0,1-.964,6.449,9.172,9.172,0,0,1-4.489,4.014,12.96,12.96,0,0,1-5.18,1.152c-4.162.045-8.324.035-12.486.045-.08,0-.16-.014-.278-.023v-.334q0-14.948,0-29.9a3.551,3.551,0,0,1,3.453-3.469c2.906-.01,5.812-.037,8.72.01a11.482,11.482,0,0,1,6.772,2.059,7.756,7.756,0,0,1,3.261,6.008,8.307,8.307,0,0,1-1.516,5.68,15.2,15.2,0,0,1-1.447,1.549C51.536,48.478,51.3,48.651,51.059,48.854Zm-12,12.053a1.012,1.012,0,0,0,.158.029c2.045,0,4.094.049,6.137-.031a3.735,3.735,0,0,0,3.4-2.1,5.149,5.149,0,0,0,0-4.82,4.058,4.058,0,0,0-3.79-2.152c-1.336-.041-2.675-.016-4.011-.006a1.793,1.793,0,0,0-1.809,1.531,4.832,4.832,0,0,0-.076.875q-.009,3.173,0,6.35C39.062,60.683,39.062,60.784,39.062,60.907Zm.016-14.328c1.634,0,3.223,0,4.81,0,.225,0,.446.008.67-.012a3.5,3.5,0,0,0,2.829-1.582,4.777,4.777,0,0,0,.669-3.057,3.441,3.441,0,0,0-3.266-3.352,36.01,36.01,0,0,0-3.732-.045,1.774,1.774,0,0,0-1.819,1.209,4.03,4.03,0,0,0-.168,1.191c-.018,1.771-.008,3.545-.006,5.316C39.064,46.347,39.072,46.446,39.078,46.579Z" transform="translate(-32.497 -32.947)" fill="#fff" fill-rule="evenodd"/>
    <path id="Caminho_206" data-name="Caminho 206" d="M59.383,62.985a4.061,4.061,0,0,1,8.121.058,4.1,4.1,0,0,1-3.99,4.01A4.055,4.055,0,0,1,59.383,62.985Z" transform="translate(-32.497 -32.947)" fill="#fff" fill-rule="evenodd"/>
  </g>
</svg>
