<?xml version="1.0" encoding="UTF-8"?>
<svg xmlns="http://www.w3.org/2000/svg" xmlns:xlink="http://www.w3.org/1999/xlink" width="40pt" height="40pt" viewBox="0 0 40 40" version="1.1">
<g id="surface25283065">
<path style=" stroke:none;fill-rule:nonzero;fill:rgb(92.54902%,94.117647%,94.509804%);fill-opacity:1;" d="M 8.691406 38.5 C 7.902344 38.5 7.164062 38.191406 6.605469 37.636719 L 2.878906 33.90625 C 1.511719 32.539062 1.117188 30.527344 1.875 28.78125 C 3.371094 25.324219 6.769531 18.644531 12.707031 12.707031 C 18.644531 6.769531 25.328125 3.371094 28.78125 1.875 C 29.355469 1.625 29.96875 1.5 30.59375 1.5 C 31.824219 1.5 33.03125 2.003906 33.90625 2.878906 L 37.636719 6.605469 C 38.785156 7.757812 38.785156 9.628906 37.636719 10.78125 L 32.753906 15.664062 C 32.195312 16.222656 31.453125 16.527344 30.664062 16.527344 C 29.875 16.527344 29.132812 16.222656 28.574219 15.664062 L 23.46875 10.554688 L 23.164062 10.664062 C 23.003906 10.726562 19.136719 12.1875 15.660156 15.664062 C 12.1875 19.140625 10.726562 23.003906 10.664062 23.167969 L 10.554688 23.46875 L 15.660156 28.578125 C 16.21875 29.136719 16.527344 29.878906 16.527344 30.664062 C 16.527344 31.453125 16.21875 32.195312 15.660156 32.753906 L 10.78125 37.636719 C 10.222656 38.191406 9.480469 38.5 8.691406 38.5 Z M 8.691406 38.5 "/>
<path style=" stroke:none;fill-rule:nonzero;fill:rgb(0.392157%,3.921569%,23.137255%);fill-opacity:1;" d="M 30.597656 2 C 31.691406 2 32.773438 2.449219 33.554688 3.230469 L 37.28125 6.957031 C 37.746094 7.421875 38 8.039062 38 8.691406 C 38 9.347656 37.746094 9.964844 37.28125 10.425781 L 32.398438 15.308594 C 31.9375 15.773438 31.320312 16.027344 30.664062 16.027344 C 30.011719 16.027344 29.394531 15.773438 28.929688 15.308594 L 23.59375 9.972656 L 22.992188 10.195312 C 22.824219 10.257812 18.859375 11.757812 15.308594 15.308594 C 11.757812 18.863281 10.257812 22.824219 10.195312 22.992188 L 9.972656 23.59375 L 10.425781 24.050781 L 15.308594 28.933594 C 16.265625 29.886719 16.265625 31.445312 15.308594 32.398438 L 10.425781 37.28125 C 9.964844 37.746094 9.347656 38 8.691406 38 C 8.039062 38 7.421875 37.746094 6.960938 37.28125 L 3.234375 33.554688 C 2.011719 32.335938 1.660156 30.539062 2.335938 28.980469 C 3.816406 25.558594 7.183594 18.941406 13.0625 13.0625 C 18.941406 7.183594 25.558594 3.816406 28.980469 2.335938 C 29.492188 2.113281 30.035156 2 30.597656 2 M 30.597656 1 C 29.914062 1 29.230469 1.136719 28.582031 1.417969 C 24.757812 3.074219 18.226562 6.484375 12.355469 12.355469 C 6.484375 18.226562 3.074219 24.757812 1.417969 28.582031 C 0.578125 30.519531 1.03125 32.769531 2.523438 34.261719 L 6.25 37.988281 C 6.925781 38.664062 7.808594 39 8.691406 39 C 9.578125 39 10.460938 38.664062 11.132812 37.988281 L 16.015625 33.105469 C 17.363281 31.757812 17.363281 29.570312 16.015625 28.222656 L 11.132812 23.339844 C 11.132812 23.339844 12.578125 19.453125 16.015625 16.015625 C 19.453125 12.578125 23.339844 11.132812 23.339844 11.132812 L 28.222656 16.015625 C 28.898438 16.691406 29.78125 17.027344 30.664062 17.027344 C 31.546875 17.027344 32.433594 16.691406 33.105469 16.015625 L 37.988281 11.132812 C 39.335938 9.785156 39.335938 7.597656 37.988281 6.25 L 34.261719 2.523438 C 33.269531 1.535156 31.941406 1 30.597656 1 Z M 30.597656 1 "/>
</g>
</svg>
