<svg xmlns="http://www.w3.org/2000/svg" width="3697.575" height="719.978" viewBox="0 0 3697.575 719.978">
  <defs>
    <style>
      .cls-1, .cls-3 {
        fill: none;
      }

      .cls-2, .cls-4, .cls-5 {
        fill: #fff;
      }

      .cls-3 {
        stroke: #fff;
        stroke-width: 9px;
      }

      .cls-4 {
        font-size: 474px;
      }

      .cls-4, .cls-5 {
        font-family: Righteous-Regular, Righteous;
      }

      .cls-5 {
        font-size: 519px;
      }

      .cls-6 {
        letter-spacing: -0.01em;
      }
    </style>
  </defs>
  <g id="Group_384" data-name="Group 384" transform="translate(2439 2782.335)">
    <g id="Group_3" data-name="Group 3" transform="translate(-569.425 -1495.335)">
      <g id="Group_1" data-name="Group 1" transform="translate(7312 -1087.561)">
        <g id="Path_224" data-name="Path 224" transform="translate(-9181.575 -199.03)">
          <path id="Path_227" data-name="Path 227" class="cls-1" d="M811.762,68.971,251.644,479.208-32.575,337.963Z" transform="translate(32.575 -68.971)"/>
          <path id="Path_228" data-name="Path 228" class="cls-2" d="M772.467,88.944-13.707,339.407,250.935,470.922,772.467,88.944M811.762,68.97,251.644,479.208-32.575,337.963Z" transform="translate(32.575 -68.97)"/>
        </g>
        <g id="Path_225" data-name="Path 225" transform="translate(-8829.363 -197.319)">
          <path id="Path_229" data-name="Path 229" class="cls-1" d="M643.189-130.042l-164.108,630.5-327.45-174.73Z" transform="translate(-151.631 130.042)"/>
          <path id="Path_230" data-name="Path 230" class="cls-2" d="M630.187-108.3,163.775,324.156l310.7,165.794L630.187-108.3m13-21.74-164.107,630.5L151.631,325.728Z" transform="translate(-151.631 130.042)"/>
        </g>
        <g id="Path_226" data-name="Path 226" transform="matrix(-0.999, -0.035, 0.035, -0.999, -8721.652, 520.539)">
          <path id="Path_231" data-name="Path 231" class="cls-1" d="M176.638,0h0c-6.384,56.031-60.057,233.416-60.057,233.416L0,177.053Z" transform="translate(0 24.903)"/>
          <path id="Path_232" data-name="Path 232" class="cls-2" d="M166.077,45.546l-154,154.359,100.087,48.389c9.181-30.8,42.255-143.223,53.91-202.749M179.474,0l-2.836,24.9c-6.38,56.031-60.059,233.416-60.059,233.416L0,201.956,176.638,24.9S179.473,0,179.474,0Z" transform="translate(0)"/>
        </g>
        <line id="Line_182" data-name="Line 182" class="cls-3" x2="0.86" y2="279.734" transform="translate(-8897.473 208.547)"/>
      </g>
      <g id="Group_2" data-name="Group 2">
        <text id="Porto" class="cls-4" transform="translate(570 -770)"><tspan x="0" y="0">Porto</tspan></text>
        <text id="whereIn" class="cls-5" transform="translate(-1300 -776)"><tspan x="0" y="0">whe</tspan><tspan class="cls-6" y="0">r</tspan><tspan y="0">eIn</tspan></text>
      </g>
    </g>
  </g>
</svg>
