<svg xmlns="http://www.w3.org/2000/svg" width="3865.575" height="911.643" viewBox="0 0 3865.575 911.643">
  <g id="Group_3" data-name="Group 3" transform="translate(2037.575 1420.664)">
    <g id="Group_1" data-name="Group 1" transform="translate(7144 -1221.635)">
      <g id="Path_224" data-name="Path 224" transform="translate(-9149 -268)" fill="none">
        <path d="M1037.14,68.971,327.511,588.712-32.575,409.765Z" stroke="none"/>
        <path d="M 987.3573608398438 94.27606201171875 L -8.6700439453125 411.5947570800781 L 326.6118774414063 578.2147827148438 L 987.3573608398438 94.27606201171875 M 1037.139770507813 68.97052001953125 L 327.5112915039063 588.7117919921875 L -32.5753173828125 409.7649536132813 L 1037.139770507813 68.97052001953125 Z" stroke="none" fill="#fff"/>
      </g>
      <g id="Path_225" data-name="Path 225" transform="translate(-8886.979 -66.82)" fill="none">
        <path d="M774.4-130.042l-207.913,798.8L151.631,447.387Z" stroke="none"/>
        <path d="M 757.9275512695313 -102.4990844726563 L 167.0158081054688 445.3954467773438 L 560.6495361328125 655.4435424804688 L 757.9275512695313 -102.4990844726563 M 774.3964233398438 -130.04248046875 L 566.48388671875 668.7579956054688 L 151.630859375 447.386962890625 L 774.3964233398438 -130.04248046875 Z" stroke="none" fill="#fff"/>
      </g>
      <g id="Path_226" data-name="Path 226" transform="matrix(-0.999, -0.035, 0.035, -0.999, -8598.886, 712.613)" fill="none">
        <path d="M223.788,31.55h0C215.7,102.537,147.7,327.272,147.7,327.272L0,255.864Z" stroke="none"/>
        <path d="M 210.4082794189453 57.70394897460938 L 15.30438232421875 253.2664337158203 L 142.1077728271484 314.5724487304688 C 153.7400817871094 275.5474243164063 195.6421203613281 133.1188201904297 210.4082794189453 57.70394897460938 M 227.3805236816406 0 C 227.3807373046875 0 226.4827270507813 7.884552001953125 223.7880401611328 31.5498046875 C 215.7049865722656 102.5368804931641 147.6983337402344 327.2720336914063 147.6983337402344 327.2720336914063 L -1.52587890625e-05 255.8638763427734 L 223.7880401611328 31.5498046875 C 223.7880401611328 31.5498046875 227.3800811767578 0 227.3805236816406 0 Z" stroke="none" fill="#fff"/>
      </g>
      <line id="Line_182" data-name="Line 182" x2="1.09" y2="354.403" transform="translate(-8821.638 317.341)" fill="none" stroke="#fff" stroke-width="9"/>
    </g>
    <g id="Group_2" data-name="Group 2">
      <text id="Porto" transform="translate(570 -770)" fill="#fff" font-size="474" font-family="Righteous-Regular, Righteous"><tspan x="0" y="0">Porto</tspan></text>
      <text id="whereIn" transform="translate(-1300 -776)" fill="#fff" font-size="519" font-family="Righteous-Regular, Righteous"><tspan x="0" y="0">whe</tspan><tspan y="0" letter-spacing="-0.01em">r</tspan><tspan y="0">eIn</tspan></text>
    </g>
  </g>
</svg>
